<svg xmlns="http://www.w3.org/2000/svg" width="360" height="250" viewBox="0 0 360 250" font-family="Helvetica, Arial, sans-serif" font-size="14">
<title>Two 6 V batteries connected in series, with a voltmeter across both</title>
<defs><marker id="arr" viewBox="0 0 10 10" refX="9" refY="5" markerWidth="7" markerHeight="7" orient="auto-start-reverse"><path d="M0,0 L10,5 L0,10 z" fill="#111" stroke="none"/></marker></defs>
<rect width="100%" height="100%" fill="#fff"/>
<g stroke="#111" stroke-width="2" fill="none" stroke-linecap="round" stroke-linejoin="round">
<line x1="60" y1="40" x2="60" y2="74.0" /><line x1="42" y1="74.0" x2="78" y2="74.0" /><line x1="51" y1="86.0" x2="69" y2="86.0" stroke-width="5"/><line x1="60" y1="86.0" x2="60" y2="120" /><text x="86" y="70.0" text-anchor="middle" fill="#111" stroke="none" font-size="16" font-weight="normal">+</text><text x="34" y="85.0" text-anchor="end" fill="#111" stroke="none" font-size="14" font-weight="normal">6 V</text><line x1="60" y1="140" x2="60" y2="174.0" /><line x1="42" y1="174.0" x2="78" y2="174.0" /><line x1="51" y1="186.0" x2="69" y2="186.0" stroke-width="5"/><line x1="60" y1="186.0" x2="60" y2="220" /><text x="86" y="170.0" text-anchor="middle" fill="#111" stroke="none" font-size="16" font-weight="normal">+</text><text x="34" y="185.0" text-anchor="end" fill="#111" stroke="none" font-size="14" font-weight="normal">6 V</text><line x1="60" y1="120" x2="60" y2="140" /><line x1="60" y1="40" x2="260" y2="40" /><line x1="60" y1="220" x2="260" y2="220" /><line x1="260" y1="40" x2="260" y2="114" /><circle cx="260" cy="130" r="16" fill="#fff"/><text x="260" y="135" text-anchor="middle" fill="#111" stroke="none" font-size="13" font-weight="bold">V</text><line x1="260" y1="146" x2="260" y2="220" />
</g>
</svg>
