<svg xmlns="http://www.w3.org/2000/svg" width="420" height="250" viewBox="0 0 420 250" font-family="Helvetica, Arial, sans-serif" font-size="14">
<title>20 V battery, ammeter and 100 ohm resistor in series</title>
<defs><marker id="arr" viewBox="0 0 10 10" refX="9" refY="5" markerWidth="7" markerHeight="7" orient="auto-start-reverse"><path d="M0,0 L10,5 L0,10 z" fill="#111" stroke="none"/></marker></defs>
<rect width="100%" height="100%" fill="#fff"/>
<g stroke="#111" stroke-width="2" fill="none" stroke-linecap="round" stroke-linejoin="round">
<line x1="60" y1="60" x2="60" y2="134.0" /><line x1="42" y1="134.0" x2="78" y2="134.0" /><line x1="51" y1="146.0" x2="69" y2="146.0" stroke-width="5"/><line x1="60" y1="146.0" x2="60" y2="220" /><text x="86" y="130.0" text-anchor="middle" fill="#111" stroke="none" font-size="16" font-weight="normal">+</text><text x="34" y="145.0" text-anchor="end" fill="#111" stroke="none" font-size="14" font-weight="normal">20 V</text><line x1="60" y1="60" x2="184" y2="60" /><circle cx="200" cy="60" r="16" fill="#fff"/><text x="200" y="65" text-anchor="middle" fill="#111" stroke="none" font-size="13" font-weight="bold">A</text><line x1="216" y1="60" x2="320" y2="60" /><line x1="320" y1="60" x2="320" y2="120.0" /><polyline points="320.0,120.0 327.0,126.7 313.0,133.3 327.0,140.0 313.0,146.7 327.0,153.3 320.0,160.0" /><line x1="320" y1="160.0" x2="320" y2="220" /><text x="334" y="145" text-anchor="start" fill="#111" stroke="none" font-size="14" font-weight="normal">100 Ω</text><line x1="60" y1="220" x2="320" y2="220" />
</g>
</svg>
