<svg xmlns="http://www.w3.org/2000/svg" width="420" height="250" viewBox="0 0 420 250" font-family="Helvetica, Arial, sans-serif" font-size="14">
<title>12 V battery with R1 and R2 in series; a voltmeter across R1 reads 8 V</title>
<defs><marker id="arr" viewBox="0 0 10 10" refX="9" refY="5" markerWidth="7" markerHeight="7" orient="auto-start-reverse"><path d="M0,0 L10,5 L0,10 z" fill="#111" stroke="none"/></marker></defs>
<rect width="100%" height="100%" fill="#fff"/>
<g stroke="#111" stroke-width="2" fill="none" stroke-linecap="round" stroke-linejoin="round">
<line x1="60" y1="60" x2="60" y2="134.0" /><line x1="42" y1="134.0" x2="78" y2="134.0" /><line x1="51" y1="146.0" x2="69" y2="146.0" stroke-width="5"/><line x1="60" y1="146.0" x2="60" y2="220" /><text x="86" y="130.0" text-anchor="middle" fill="#111" stroke="none" font-size="16" font-weight="normal">+</text><text x="34" y="145.0" text-anchor="end" fill="#111" stroke="none" font-size="14" font-weight="normal">12 V</text><line x1="60" y1="60" x2="110" y2="60" /><line x1="110" y1="60" x2="150.0" y2="60" /><polyline points="150.0,60.0 156.7,53.0 163.3,67.0 170.0,53.0 176.7,67.0 183.3,53.0 190.0,60.0" /><line x1="190.0" y1="60" x2="230" y2="60" /><text x="170" y="40" text-anchor="middle" fill="#111" stroke="none" font-size="14" font-weight="normal">R1</text><line x1="230" y1="60" x2="330" y2="60" /><line x1="330" y1="60" x2="330" y2="120.0" /><polyline points="330.0,120.0 337.0,126.7 323.0,133.3 337.0,140.0 323.0,146.7 337.0,153.3 330.0,160.0" /><line x1="330" y1="160.0" x2="330" y2="220" /><text x="344" y="145" text-anchor="start" fill="#111" stroke="none" font-size="14" font-weight="normal">R2</text><line x1="60" y1="220" x2="330" y2="220" /><line x1="110" y1="60" x2="110" y2="110" /><line x1="230" y1="60" x2="230" y2="110" /><line x1="110" y1="110" x2="154" y2="110" /><circle cx="170" cy="110" r="16" fill="#fff"/><text x="170" y="115" text-anchor="middle" fill="#111" stroke="none" font-size="13" font-weight="bold">V</text><line x1="186" y1="110" x2="230" y2="110" /><text x="170" y="150" text-anchor="middle" fill="#111" stroke="none" font-size="13" font-weight="normal">reads 8 V</text>
</g>
</svg>
