<svg xmlns="http://www.w3.org/2000/svg" width="640" height="250" viewBox="0 0 640 250" font-family="Helvetica, Arial, sans-serif" font-size="14">
<title>Transformer, one diode and a load; the output has only every other half-cycle</title>
<defs><marker id="arr" viewBox="0 0 10 10" refX="9" refY="5" markerWidth="7" markerHeight="7" orient="auto-start-reverse"><path d="M0,0 L10,5 L0,10 z" fill="#111" stroke="none"/></marker></defs>
<rect width="100%" height="100%" fill="#fff"/>
<g stroke="#111" stroke-width="2" fill="none" stroke-linecap="round" stroke-linejoin="round">
<circle cx="30" cy="60" r="4" fill="#fff"/><circle cx="30" cy="200" r="4" fill="#fff"/><line x1="34" y1="60" x2="84" y2="60" /><line x1="84" y1="60" x2="84" y2="70" /><line x1="34" y1="200" x2="84" y2="200" /><line x1="84" y1="200" x2="84" y2="190" /><line x1="84" y1="70" x2="84" y2="106.0" /><path d="M84,106.0 a6,6 0 0 1 0,12 a6,6 0 0 1 0,12 a6,6 0 0 1 0,12 a6,6 0 0 1 0,12"/><line x1="84" y1="154.0" x2="84" y2="190" /><line x1="116" y1="70" x2="116" y2="106.0" /><path d="M116,106.0 a6,6 0 0 1 0,12 a6,6 0 0 1 0,12 a6,6 0 0 1 0,12 a6,6 0 0 1 0,12"/><line x1="116" y1="154.0" x2="116" y2="190" /><line x1="97" y1="80" x2="97" y2="180" /><line x1="103" y1="80" x2="103" y2="180" /><line x1="116" y1="70" x2="116" y2="60" /><line x1="116" y1="190" x2="116" y2="200" /><line x1="116" y1="60" x2="150" y2="60" /><line x1="150" y1="60" x2="250" y2="60" /><polygon points="190.0,70.0 190.0,50.0 210.0,60.0" fill="#111"/><line x1="210.0" y1="70.0" x2="210.0" y2="50.0" /><line x1="250" y1="60" x2="320" y2="60" /><line x1="320" y1="60" x2="320" y2="110.0" /><polyline points="320.0,110.0 327.0,116.7 313.0,123.3 327.0,130.0 313.0,136.7 327.0,143.3 320.0,150.0" /><line x1="320" y1="150.0" x2="320" y2="200" /><line x1="116" y1="200" x2="320" y2="200" /><text x="30" y="235" text-anchor="middle" fill="#111" stroke="none" font-size="14" font-weight="normal">230 V AC</text><text x="336" y="135" text-anchor="start" fill="#111" stroke="none" font-size="14" font-weight="normal">Load</text><polyline points="400.0,130.0 401.0,126.2 402.0,122.5 403.0,118.8 404.0,115.1 405.0,111.5 406.0,107.9 407.0,104.5 408.0,101.1 409.0,97.9 410.0,94.7 411.0,91.8 412.0,88.9 413.0,86.3 414.0,83.8 415.0,81.5 416.0,79.3 417.0,77.4 418.0,75.7 419.0,74.2 420.0,72.9 421.0,71.9 422.0,71.1 423.0,70.5 424.0,70.1 425.0,70.0 426.0,70.1 427.0,70.5 428.0,71.1 429.0,71.9 430.0,72.9 431.0,74.2 432.0,75.7 433.0,77.4 434.0,79.3 435.0,81.5 436.0,83.8 437.0,86.3 438.0,88.9 439.0,91.8 440.0,94.7 441.0,97.9 442.0,101.1 443.0,104.5 444.0,107.9 445.0,111.5 446.0,115.1 447.0,118.8 448.0,122.5 449.0,126.2 450.0,130.0 451.0,130.0 452.0,130.0 453.0,130.0 454.0,130.0 455.0,130.0 456.0,130.0 457.0,130.0 458.0,130.0 459.0,130.0 460.0,130.0 461.0,130.0 462.0,130.0 463.0,130.0 464.0,130.0 465.0,130.0 466.0,130.0 467.0,130.0 468.0,130.0 469.0,130.0 470.0,130.0 471.0,130.0 472.0,130.0 473.0,130.0 474.0,130.0 475.0,130.0 476.0,130.0 477.0,130.0 478.0,130.0 479.0,130.0 480.0,130.0 481.0,130.0 482.0,130.0 483.0,130.0 484.0,130.0 485.0,130.0 486.0,130.0 487.0,130.0 488.0,130.0 489.0,130.0 490.0,130.0 491.0,130.0 492.0,130.0 493.0,130.0 494.0,130.0 495.0,130.0 496.0,130.0 497.0,130.0 498.0,130.0 499.0,130.0 500.0,130.0 501.0,126.2 502.0,122.5 503.0,118.8 504.0,115.1 505.0,111.5 506.0,107.9 507.0,104.5 508.0,101.1 509.0,97.9 510.0,94.7 511.0,91.8 512.0,88.9 513.0,86.3 514.0,83.8 515.0,81.5 516.0,79.3 517.0,77.4 518.0,75.7 519.0,74.2 520.0,72.9 521.0,71.9 522.0,71.1 523.0,70.5 524.0,70.1 525.0,70.0 526.0,70.1 527.0,70.5 528.0,71.1 529.0,71.9 530.0,72.9 531.0,74.2 532.0,75.7 533.0,77.4 534.0,79.3 535.0,81.5 536.0,83.8 537.0,86.3 538.0,88.9 539.0,91.8 540.0,94.7 541.0,97.9 542.0,101.1 543.0,104.5 544.0,107.9 545.0,111.5 546.0,115.1 547.0,118.8 548.0,122.5 549.0,126.2 550.0,130.0 551.0,130.0 552.0,130.0 553.0,130.0 554.0,130.0 555.0,130.0 556.0,130.0 557.0,130.0 558.0,130.0 559.0,130.0 560.0,130.0 561.0,130.0 562.0,130.0 563.0,130.0 564.0,130.0 565.0,130.0 566.0,130.0 567.0,130.0 568.0,130.0 569.0,130.0 570.0,130.0 571.0,130.0 572.0,130.0 573.0,130.0 574.0,130.0 575.0,130.0 576.0,130.0 577.0,130.0 578.0,130.0 579.0,130.0 580.0,130.0 581.0,130.0 582.0,130.0 583.0,130.0 584.0,130.0 585.0,130.0 586.0,130.0 587.0,130.0 588.0,130.0 589.0,130.0 590.0,130.0 591.0,130.0 592.0,130.0 593.0,130.0 594.0,130.0 595.0,130.0 596.0,130.0 597.0,130.0 598.0,130.0 599.0,130.0 600.0,130.0" stroke="#1a5fb4" stroke-width="2.4"/><line x1="400" y1="130" x2="600" y2="130" stroke="#bbb" stroke-width="1"/><text x="500" y="160" text-anchor="middle" fill="#111" stroke="none" font-size="13" font-weight="normal">output voltage</text>
</g>
</svg>
