<svg xmlns="http://www.w3.org/2000/svg" width="380" height="360" viewBox="0 0 380 360" font-family="Helvetica, Arial, sans-serif" font-size="14">
<title>Omnidirectional radiation pattern</title>
<defs><marker id="arr" viewBox="0 0 10 10" refX="9" refY="5" markerWidth="7" markerHeight="7" orient="auto-start-reverse"><path d="M0,0 L10,5 L0,10 z" fill="#111" stroke="none"/></marker></defs>
<rect width="100%" height="100%" fill="#fff"/>
<g stroke="#111" stroke-width="2" fill="none" stroke-linecap="round" stroke-linejoin="round">
<circle cx="190" cy="190" r="43.3" stroke="#bbb" stroke-width="1"/><circle cx="190" cy="190" r="86.7" stroke="#bbb" stroke-width="1"/><circle cx="190" cy="190" r="130.0" stroke="#bbb" stroke-width="1"/><line x1="60.0" y1="190.0" x2="320.0" y2="190.0" stroke="#bbb" stroke-width="1"/><line x1="77.41669750802296" y1="125.00000000000001" x2="302.58330249197707" y2="255.0" stroke="#bbb" stroke-width="1"/><line x1="124.99999999999999" y1="77.41669750802298" x2="255.0" y2="302.583302491977" stroke="#bbb" stroke-width="1"/><line x1="190.0" y1="60.0" x2="190.0" y2="320.0" stroke="#bbb" stroke-width="1"/><line x1="254.99999999999997" y1="77.41669750802296" x2="125.00000000000003" y2="302.58330249197707" stroke="#bbb" stroke-width="1"/><line x1="302.58330249197707" y1="125.00000000000001" x2="77.41669750802296" y2="255.0" stroke="#bbb" stroke-width="1"/><polyline points="190.0,70.4 192.1,70.4 194.2,70.5 196.3,70.6 198.3,70.7 200.4,70.9 202.5,71.1 204.6,71.3 206.6,71.6 208.7,71.9 210.8,72.2 212.8,72.6 214.9,73.0 216.9,73.5 218.9,74.0 221.0,74.5 223.0,75.0 225.0,75.6 227.0,76.3 228.9,76.9 230.9,77.6 232.9,78.3 234.8,79.1 236.7,79.9 238.6,80.7 240.5,81.6 242.4,82.5 244.3,83.4 246.1,84.4 248.0,85.4 249.8,86.4 251.6,87.5 253.4,88.6 255.1,89.7 256.9,90.8 258.6,92.0 260.3,93.2 262.0,94.5 263.6,95.8 265.3,97.1 266.9,98.4 268.5,99.7 270.0,101.1 271.6,102.5 273.1,104.0 274.6,105.4 276.0,106.9 277.5,108.4 278.9,110.0 280.3,111.5 281.6,113.1 282.9,114.7 284.2,116.4 285.5,118.0 286.8,119.7 288.0,121.4 289.2,123.1 290.3,124.9 291.4,126.6 292.5,128.4 293.6,130.2 294.6,132.0 295.6,133.9 296.6,135.7 297.5,137.6 298.4,139.5 299.3,141.4 300.1,143.3 300.9,145.2 301.7,147.1 302.4,149.1 303.1,151.1 303.7,153.0 304.4,155.0 305.0,157.0 305.5,159.0 306.0,161.1 306.5,163.1 307.0,165.1 307.4,167.2 307.8,169.2 308.1,171.3 308.4,173.4 308.7,175.4 308.9,177.5 309.1,179.6 309.3,181.7 309.4,183.7 309.5,185.8 309.6,187.9 309.6,190.0 309.6,192.1 309.5,194.2 309.4,196.3 309.3,198.3 309.1,200.4 308.9,202.5 308.7,204.6 308.4,206.6 308.1,208.7 307.8,210.8 307.4,212.8 307.0,214.9 306.5,216.9 306.0,218.9 305.5,221.0 305.0,223.0 304.4,225.0 303.7,227.0 303.1,228.9 302.4,230.9 301.7,232.9 300.9,234.8 300.1,236.7 299.3,238.6 298.4,240.5 297.5,242.4 296.6,244.3 295.6,246.1 294.6,248.0 293.6,249.8 292.5,251.6 291.4,253.4 290.3,255.1 289.2,256.9 288.0,258.6 286.8,260.3 285.5,262.0 284.2,263.6 282.9,265.3 281.6,266.9 280.3,268.5 278.9,270.0 277.5,271.6 276.0,273.1 274.6,274.6 273.1,276.0 271.6,277.5 270.0,278.9 268.5,280.3 266.9,281.6 265.3,282.9 263.6,284.2 262.0,285.5 260.3,286.8 258.6,288.0 256.9,289.2 255.1,290.3 253.4,291.4 251.6,292.5 249.8,293.6 248.0,294.6 246.1,295.6 244.3,296.6 242.4,297.5 240.5,298.4 238.6,299.3 236.7,300.1 234.8,300.9 232.9,301.7 230.9,302.4 228.9,303.1 227.0,303.7 225.0,304.4 223.0,305.0 221.0,305.5 218.9,306.0 216.9,306.5 214.9,307.0 212.8,307.4 210.8,307.8 208.7,308.1 206.6,308.4 204.6,308.7 202.5,308.9 200.4,309.1 198.3,309.3 196.3,309.4 194.2,309.5 192.1,309.6 190.0,309.6 187.9,309.6 185.8,309.5 183.7,309.4 181.7,309.3 179.6,309.1 177.5,308.9 175.4,308.7 173.4,308.4 171.3,308.1 169.2,307.8 167.2,307.4 165.1,307.0 163.1,306.5 161.1,306.0 159.0,305.5 157.0,305.0 155.0,304.4 153.0,303.7 151.1,303.1 149.1,302.4 147.1,301.7 145.2,300.9 143.3,300.1 141.4,299.3 139.5,298.4 137.6,297.5 135.7,296.6 133.9,295.6 132.0,294.6 130.2,293.6 128.4,292.5 126.6,291.4 124.9,290.3 123.1,289.2 121.4,288.0 119.7,286.8 118.0,285.5 116.4,284.2 114.7,282.9 113.1,281.6 111.5,280.3 110.0,278.9 108.4,277.5 106.9,276.0 105.4,274.6 104.0,273.1 102.5,271.6 101.1,270.0 99.7,268.5 98.4,266.9 97.1,265.3 95.8,263.6 94.5,262.0 93.2,260.3 92.0,258.6 90.8,256.9 89.7,255.1 88.6,253.4 87.5,251.6 86.4,249.8 85.4,248.0 84.4,246.1 83.4,244.3 82.5,242.4 81.6,240.5 80.7,238.6 79.9,236.7 79.1,234.8 78.3,232.9 77.6,230.9 76.9,228.9 76.3,227.0 75.6,225.0 75.0,223.0 74.5,221.0 74.0,218.9 73.5,216.9 73.0,214.9 72.6,212.8 72.2,210.8 71.9,208.7 71.6,206.6 71.3,204.6 71.1,202.5 70.9,200.4 70.7,198.3 70.6,196.3 70.5,194.2 70.4,192.1 70.4,190.0 70.4,187.9 70.5,185.8 70.6,183.7 70.7,181.7 70.9,179.6 71.1,177.5 71.3,175.4 71.6,173.4 71.9,171.3 72.2,169.2 72.6,167.2 73.0,165.1 73.5,163.1 74.0,161.1 74.5,159.0 75.0,157.0 75.6,155.0 76.3,153.0 76.9,151.1 77.6,149.1 78.3,147.1 79.1,145.2 79.9,143.3 80.7,141.4 81.6,139.5 82.5,137.6 83.4,135.7 84.4,133.9 85.4,132.0 86.4,130.2 87.5,128.4 88.6,126.6 89.7,124.9 90.8,123.1 92.0,121.4 93.2,119.7 94.5,118.0 95.8,116.4 97.1,114.7 98.4,113.1 99.7,111.5 101.1,110.0 102.5,108.4 104.0,106.9 105.4,105.4 106.9,104.0 108.4,102.5 110.0,101.1 111.5,99.7 113.1,98.4 114.7,97.1 116.4,95.8 118.0,94.5 119.7,93.2 121.4,92.0 123.1,90.8 124.9,89.7 126.6,88.6 128.4,87.5 130.2,86.4 132.0,85.4 133.9,84.4 135.7,83.4 137.6,82.5 139.5,81.6 141.4,80.7 143.3,79.9 145.2,79.1 147.1,78.3 149.1,77.6 151.1,76.9 153.0,76.3 155.0,75.6 157.0,75.0 159.0,74.5 161.1,74.0 163.1,73.5 165.1,73.0 167.2,72.6 169.2,72.2 171.3,71.9 173.4,71.6 175.4,71.3 177.5,71.1 179.6,70.9 181.7,70.7 183.7,70.6 185.8,70.5 187.9,70.4 190.0,70.4" stroke="#1a5fb4" stroke-width="2.5"/><text x="190" y="52" text-anchor="middle" fill="#111" stroke="none" font-size="14" font-weight="normal">0°</text><text x="328" y="195" text-anchor="start" fill="#111" stroke="none" font-size="14" font-weight="normal">90°</text><text x="190" y="340" text-anchor="middle" fill="#111" stroke="none" font-size="14" font-weight="normal">180°</text><text x="52" y="195" text-anchor="end" fill="#111" stroke="none" font-size="14" font-weight="normal">270°</text><text x="190" y="30" text-anchor="middle" fill="#111" stroke="none" font-size="14" font-weight="bold">Horizontal radiation pattern (plan view)</text>
</g>
</svg>
