<svg xmlns="http://www.w3.org/2000/svg" width="600" height="300" viewBox="0 0 600 300" font-family="Helvetica, Arial, sans-serif" font-size="14">
<title>Standing wave voltage along a line between 1 V and 3 V</title>
<defs><marker id="arr" viewBox="0 0 10 10" refX="9" refY="5" markerWidth="7" markerHeight="7" orient="auto-start-reverse"><path d="M0,0 L10,5 L0,10 z" fill="#111" stroke="none"/></marker></defs>
<rect width="100%" height="100%" fill="#fff"/>
<g stroke="#111" stroke-width="2" fill="none" stroke-linecap="round" stroke-linejoin="round">
<g transform="translate(20,0)"><line x1="60" y1="260" x2="560" y2="260" marker-end="url(#arr)"/><text x="560" y="285" text-anchor="end" fill="#111" stroke="none" font-size="14" font-weight="normal">distance along the line</text><line x1="60" y1="260" x2="60" y2="30" marker-end="url(#arr)"/><text x="70" y="30" text-anchor="start" fill="#111" stroke="none" font-size="14" font-weight="normal">RF voltage</text><polyline points="60.0,125.0 63.0,125.2 66.0,125.8 69.0,126.8 72.0,128.2 75.0,129.9 78.0,132.0 81.0,134.4 84.0,137.2 87.0,140.2 90.0,143.5 93.0,147.1 96.0,150.8 99.0,154.8 102.0,158.8 105.0,163.0 108.0,167.2 111.0,171.4 114.0,175.6 117.0,179.8 120.0,183.9 123.0,187.9 126.0,191.7 129.0,195.3 132.0,198.7 135.0,201.8 138.0,204.7 141.0,207.2 144.0,209.4 147.0,211.3 150.0,212.8 153.0,213.9 156.0,214.6 159.0,215.0 162.0,214.9 165.0,214.4 168.0,213.6 171.0,212.3 174.0,210.7 177.0,208.7 180.0,206.4 183.0,203.8 186.0,200.8 189.0,197.6 192.0,194.1 195.0,190.4 198.0,186.6 201.0,182.6 204.0,178.4 207.0,174.2 210.0,170.0 213.0,165.8 216.0,161.6 219.0,157.4 222.0,153.4 225.0,149.6 228.0,145.9 231.0,142.4 234.0,139.2 237.0,136.2 240.0,133.6 243.0,131.3 246.0,129.3 249.0,127.7 252.0,126.4 255.0,125.6 258.0,125.1 261.0,125.0 264.0,125.4 267.0,126.1 270.0,127.2 273.0,128.7 276.0,130.6 279.0,132.8 282.0,135.3 285.0,138.2 288.0,141.3 291.0,144.7 294.0,148.3 297.0,152.1 300.0,156.1 303.0,160.2 306.0,164.4 309.0,168.6 312.0,172.8 315.0,177.0 318.0,181.2 321.0,185.2 324.0,189.2 327.0,192.9 330.0,196.5 333.0,199.8 336.0,202.8 339.0,205.6 342.0,208.0 345.0,210.1 348.0,211.8 351.0,213.2 354.0,214.2 357.0,214.8 360.0,215.0 363.0,214.8 366.0,214.2 369.0,213.2 372.0,211.8 375.0,210.1 378.0,208.0 381.0,205.6 384.0,202.8 387.0,199.8 390.0,196.5 393.0,192.9 396.0,189.2 399.0,185.2 402.0,181.2 405.0,177.0 408.0,172.8 411.0,168.6 414.0,164.4 417.0,160.2 420.0,156.1 423.0,152.1 426.0,148.3 429.0,144.7 432.0,141.3 435.0,138.2 438.0,135.3 441.0,132.8 444.0,130.6 447.0,128.7 450.0,127.2 453.0,126.1 456.0,125.4 459.0,125.0 462.0,125.1 465.0,125.6 468.0,126.4 471.0,127.7 474.0,129.3 477.0,131.3 480.0,133.6 483.0,136.2 486.0,139.2 489.0,142.4 492.0,145.9 495.0,149.6 498.0,153.4 501.0,157.4 504.0,161.6 507.0,165.8 510.0,170.0 513.0,174.2 516.0,178.4 519.0,182.6 522.0,186.6 525.0,190.4 528.0,194.1 531.0,197.6 534.0,200.8 537.0,203.8 540.0,206.4 543.0,208.7 546.0,210.7 549.0,212.3 552.0,213.6" stroke="#1a5fb4" stroke-width="2.5"/><line x1="60" y1="215" x2="555" y2="215" stroke-dasharray="5,5" stroke="#888" stroke-width="1"/><line x1="60" y1="125" x2="555" y2="125" stroke-dasharray="5,5" stroke="#888" stroke-width="1"/><text x="52" y="130" text-anchor="end" fill="#111" stroke="none" font-size="13" font-weight="normal">3 V</text><text x="52" y="220" text-anchor="end" fill="#111" stroke="none" font-size="13" font-weight="normal">1 V</text></g>
</g>
</svg>
