<svg xmlns="http://www.w3.org/2000/svg" width="380" height="250" viewBox="0 0 380 250" font-family="Helvetica, Arial, sans-serif" font-size="14">
<title>10 ohm and 20 ohm in series across 30 V</title>
<defs><marker id="arr" viewBox="0 0 10 10" refX="9" refY="5" markerWidth="7" markerHeight="7" orient="auto-start-reverse"><path d="M0,0 L10,5 L0,10 z" fill="#111" stroke="none"/></marker></defs>
<rect width="100%" height="100%" fill="#fff"/>
<g stroke="#111" stroke-width="2" fill="none" stroke-linecap="round" stroke-linejoin="round">
<line x1="60" y1="60" x2="60" y2="134.0" /><line x1="42" y1="134.0" x2="78" y2="134.0" /><line x1="51" y1="146.0" x2="69" y2="146.0" stroke-width="5"/><line x1="60" y1="146.0" x2="60" y2="220" /><text x="86" y="130.0" text-anchor="middle" fill="#111" stroke="none" font-size="16" font-weight="normal">+</text><text x="34" y="145.0" text-anchor="end" fill="#111" stroke="none" font-size="14" font-weight="normal">30 V</text><line x1="60" y1="60" x2="100" y2="60" /><line x1="100" y1="60" x2="140.0" y2="60" /><polyline points="140.0,60.0 146.7,53.0 153.3,67.0 160.0,53.0 166.7,67.0 173.3,53.0 180.0,60.0" /><line x1="180.0" y1="60" x2="220" y2="60" /><text x="160" y="40" text-anchor="middle" fill="#111" stroke="none" font-size="14" font-weight="normal">10 Ω</text><line x1="220" y1="60" x2="300" y2="60" /><line x1="300" y1="60" x2="300" y2="120.0" /><polyline points="300.0,120.0 307.0,126.7 293.0,133.3 307.0,140.0 293.0,146.7 307.0,153.3 300.0,160.0" /><line x1="300" y1="160.0" x2="300" y2="220" /><text x="314" y="145" text-anchor="start" fill="#111" stroke="none" font-size="14" font-weight="normal">20 Ω</text><line x1="60" y1="220" x2="300" y2="220" />
</g>
</svg>
